C:\GBW_MyPrograms\KinderuniversiteitApp\Resultaten\Ellis\Volwassenen\Volwassenen_v1.mot
version=1
nRows=18
nColumns=29
inDegrees=yes
endheader
                time	         pelvis_tilt	           pelvis_tx	           pelvis_ty	       hip_flexion_l	       hip_flexion_r	        knee_angle_l	        knee_angle_r	       ankle_angle_l	       ankle_angle_r	    lumbar_extension	hamstrings_r/activation	bifemsh_r/activation	glut_max_r/activation	iliopsoas_r/activation	rect_fem_r/activation	  vasti_r/activation	gastroc_r/activation	 soleus_r/activation	tib_ant_r/activation	hamstrings_l/activation	bifemsh_l/activation	glut_max_l/activation	iliopsoas_l/activation	rect_fem_l/activation	  vasti_l/activation	gastroc_l/activation	 soleus_l/activation	tib_ant_l/activation	
          0.00000000	         -7.90842808	          0.00000000	          1.02296313	        -12.67086327	         28.04681692	         -6.37417717	        -17.14381959	         -6.66901341	          2.87881165	          1.10397008	          0.21175125	          0.05000000	          0.05000000	          0.05867535	          0.07091058	          0.07400417	          0.05379711	          0.05867535	          0.19988474	          0.05000000	          0.11898191	          0.05000000	          0.56581047	          0.05000000	          0.05000000	          0.21745841	          0.31289084	          0.05000000	
          0.01041043	         -7.89717740	          0.01585223	          1.02123548	        -12.18420593	         27.37298352	         -8.81345652	        -16.90571843	         -7.18054669	          2.79466301	          1.43811151	          0.18975060	          0.05000000	          0.05892808	          0.05000000	          0.06042620	          0.10661084	          0.05000000	          0.05000000	          0.22241541	          0.05000000	          0.10139002	          0.05000000	          0.50070417	          0.05000000	          0.05000000	          0.18530642	          0.26957556	          0.05000000	
          0.02082086	         -7.88218508	          0.03204011	          1.01943656	        -11.54090404	         26.64166189	        -11.53819712	        -17.21677335	         -7.87495543	          2.95591974	          1.80648865	          0.16169530	          0.06885594	          0.10801661	          0.05000000	          0.05149198	          0.13406872	          0.05000000	          0.06223429	          0.19758966	          0.05000000	          0.08639914	          0.05000000	          0.42667329	          0.05000000	          0.05000000	          0.15790821	          0.22971786	          0.05000000	
          0.03123129	         -7.86670332	          0.04833893	          1.01774013	        -10.71689376	         25.86678105	        -14.52861324	        -17.66050395	         -8.88161325	          3.55794569	          2.18757762	          0.13778808	          0.05867535	          0.13913235	          0.05000000	          0.05000000	          0.18811943	          0.05000000	          0.10067685	          0.16837533	          0.05000000	          0.07362473	          0.07946839	          0.36358814	          0.05000000	          0.05000000	          0.13456093	          0.19575327	          0.05000000	
          0.04164172	         -7.85437320	          0.06438557	          1.01646801	         -9.69021596	         25.16507415	        -17.74577251	        -18.24592238	        -10.26006135	          4.57353752	          2.54446776	          0.11741563	          0.05000000	          0.19510395	          0.05000000	          0.05000000	          0.25195297	          0.05000000	          0.14731627	          0.14348044	          0.05000000	          0.06273905	          0.06885594	          0.30983035	          0.05000000	          0.05037166	          0.11466562	          0.16681046	          0.20216657	
          0.05205215	         -7.84757991	          0.07988395	          1.01573425	         -8.47693347	         24.55082001	        -21.12703759	        -18.90640012	        -11.44852197	          5.52277509	          2.84687846	          0.10005531	          0.05000000	          0.18895675	          0.05000000	          0.05000000	          0.29895875	          0.05000000	          0.19527313	          0.12226635	          0.05000000	          0.05346286	          0.05867535	          0.26402084	          0.05867535	          0.05000000	          0.09771190	          0.14214694	          0.20150243	
          0.06246258	         -7.84706090	          0.09478147	          1.01557036	         -7.16217596	         23.95368651	        -24.42856590	        -19.49211020	        -11.55758860	          6.26825362	          3.09067888	          0.08526178	          0.05000000	          0.16291369	          0.05000000	          0.05000000	          0.31516637	          0.07284447	          0.23091537	          0.10418884	          0.05000000	          0.05000000	          0.05000000	          0.22498443	          0.05000000	          0.05000000	          0.08326485	          0.12113001	          0.24030228	
          0.07287301	         -7.85154117	          0.10916923	          1.01604633	         -5.79931474	         23.30148031	        -27.50457154	        -19.88111672	        -11.27768302	          6.76940829	          3.28586346	          0.07265553	          0.05000000	          0.14357667	          0.05000000	          0.05000000	          0.30616315	          0.09419718	          0.25950424	          0.09788384	          0.05000000	          0.07057014	          0.05000000	          0.19171969	          0.05000000	          0.05000000	          0.07095385	          0.10322051	          0.22758528	
          0.08328345	         -7.86105666	          0.12312806	          1.01712040	         -4.42299493	         22.56372667	        -30.29043717	        -20.03216917	        -10.76906644	          7.06597412	          3.44238830	          0.06773199	          0.05000000	          0.12380394	          0.05000000	          0.05000000	          0.27517560	          0.11568555	          0.27815260	          0.09803706	          0.05000000	          0.09324543	          0.05000000	          0.16337325	          0.05000000	          0.05000000	          0.06282694	          0.08795900	          0.21334189	
          0.09369388	         -7.87449019	          0.13671989	          1.01869297	         -3.05726428	         21.74533284	        -32.75446416	        -19.96753561	        -10.13180405	          7.19397087	          3.56629723	          0.06678336	          0.05000000	          0.10757925	          0.05000000	          0.05000000	          0.23448992	          0.13700253	          0.28969158	          0.09777714	          0.05000002	          0.11718118	          0.05000000	          0.13921794	          0.06278544	          0.05000000	          0.05628637	          0.07495395	          0.19583312	
          0.10410431	         -7.89057541	          0.14999015	          1.02063994	         -1.71828528	         20.86879837	        -34.88283632	        -19.73732524	         -9.42600956	          7.17546377	          3.66130897	          0.06902195	          0.05000000	          0.09605489	          0.05000000	          0.05000000	          0.19981976	          0.15753374	          0.29481349	          0.08841502	          0.05583147	          0.14753860	          0.05000000	          0.11972484	          0.10249983	          0.05000000	          0.05090901	          0.06387174	          0.17873731	
          0.11451474	         -7.90819759	          0.16297597	          1.02284623	         -0.41634963	         19.95104115	        -36.67074880	        -19.37875235	         -8.69275989	          7.02425020	          3.73023759	          0.07218906	          0.05000000	          0.08969889	          0.05000000	          0.05000000	          0.17027570	          0.17681557	          0.29454383	          0.07534255	          0.05846467	          0.18151766	          0.05000000	          0.10903976	          0.12961592	          0.05000000	          0.05041360	          0.05442808	          0.16486108	
          0.12492517	         -7.92659965	          0.17570193	          1.02521561	          0.84940098	         19.00278574	        -38.13529894	        -18.91768516	         -7.98352588	          6.76511658	          3.77480825	          0.07540716	          0.05000000	          0.08609309	          0.05000000	          0.05000000	          0.14509984	          0.19471345	          0.29029879	          0.06420289	          0.05627126	          0.21842530	          0.05000000	          0.10185153	          0.14895332	          0.05000000	          0.05000000	          0.05000000	          0.15811296	
          0.13533560	         -7.94526719	          0.18818146	          1.02766499	          2.08808701	         18.03346678	        -39.31251152	        -18.37725038	         -7.33868456	          6.42767220	          3.79570706	          0.07796345	          0.05000000	          0.08421721	          0.05000000	          0.05000000	          0.12364631	          0.21125491	          0.28364365	          0.05471026	          0.05000006	          0.25686872	          0.05000000	          0.09644857	          0.16024089	          0.05000000	          0.05000000	          0.05000000	          0.15830633	
          0.14574603	         -7.96378281	          0.20042129	          1.03012134	          3.31177469	         17.05278920	        -40.24774543	        -17.78020677	         -6.75364946	          6.03860779	          3.79293084	          0.07834342	          0.05000000	          0.08087903	          0.05000000	          0.05000000	          0.10536477	          0.22663172	          0.27595478	          0.05000000	          0.05000000	          0.29450480	          0.05000000	          0.09394635	          0.16618348	          0.05000000	          0.05000000	          0.05000000	          0.15860407	
          0.15615646	         -7.98133773	          0.21242230	          1.03251885	          4.53452229	         16.07205970	        -40.99634691	        -17.15289378	         -6.18976555	          5.62518157	          3.76531898	          0.07703262	          0.05000000	          0.07841073	          0.05000000	          0.05000000	          0.08978622	          0.24097973	          0.26832968	          0.05000000	          0.05000000	          0.33049958	          0.05000000	          0.09268101	          0.16755034	          0.05000000	          0.05000000	          0.05000000	          0.16006232	
          0.16656689	         -7.99709255	          0.22418255	          1.03480204	          5.77085699	         15.10425821	        -41.61395929	        -16.52402708	         -5.63507602	          5.20700460	          3.71135433	          0.07405490	          0.05000000	          0.07717131	          0.05000000	          0.05000000	          0.07651101	          0.25443327	          0.26142942	          0.05000000	          0.05000000	          0.36361087	          0.05000000	          0.09224266	          0.16592474	          0.05000000	          0.05000000	          0.05000000	          0.16169942	
          0.17697732	         -8.01044952	          0.23569945	          1.03693353	          7.03362407	         14.16339495	        -42.14979584	        -15.92201158	         -5.08667584	          4.79200852	          3.62976373	          0.06957514	          0.05000000	          0.07474586	          0.05000000	          0.05000000	          0.07168199	          0.26679920	          0.25535030	          0.05000000	          0.05000000	          0.39303179	          0.05000000	          0.09263307	          0.16249151	          0.05000000	          0.05000000	          0.05000000	          0.16350241	
